<?xml version="1.0" standalone="no"?>
<!DOCTYPE svg PUBLIC "-//W3C//DTD SVG 20010904//EN"
 "http://www.w3.org/TR/2001/REC-SVG-20010904/DTD/svg10.dtd">
<svg version="1.0" xmlns="http://www.w3.org/2000/svg"
 width="600.000000pt" height="600.000000pt" viewBox="0 0 600.000000 600.000000"
 preserveAspectRatio="xMidYMid meet">
<metadata>
Created by potrace 1.11, written by Peter Selinger 2001-2013
</metadata>
<g transform="translate(0.000000,600.000000) scale(0.100000,-0.100000)"
fill="#000000" stroke="none">
<path d="M1253 5989 c-5 -5 -32 -10 -59 -11 -27 0 -52 -5 -55 -9 -3 -5 -22
-10 -42 -11 -20 -1 -34 -5 -31 -10 3 -4 -10 -9 -28 -10 -36 -1 -42 -2 -75 -13
-13 -4 -20 -12 -16 -19 4 -6 -1 -5 -10 3 -11 9 -17 10 -17 2 0 -6 -12 -11 -26
-11 -17 0 -23 -4 -18 -12 5 -8 0 -7 -11 2 -11 9 -16 10 -11 3 5 -9 0 -13 -13
-13 -12 0 -21 -4 -21 -10 0 -5 -9 -10 -19 -10 -11 0 -21 -4 -23 -10 -2 -5 -15
-11 -30 -12 -15 -1 -24 -6 -22 -10 3 -4 -3 -8 -13 -8 -10 0 -31 -11 -46 -24
-17 -15 -35 -22 -44 -19 -11 4 -14 2 -9 -5 5 -8 0 -12 -13 -12 -12 0 -21 -7
-21 -16 0 -8 -4 -13 -9 -10 -5 3 -14 -1 -21 -9 -7 -8 -17 -12 -23 -8 -6 3 -7
1 -3 -5 4 -7 3 -12 -2 -12 -4 0 -18 -9 -30 -20 -12 -11 -25 -21 -29 -21 -5 -1
-7 -5 -5 -10 1 -5 -1 -8 -5 -8 -5 1 -15 1 -23 0 -13 -1 -13 -2 0 -11 14 -9 11
-11 -15 -10 -3 0 -12 -5 -19 -12 -10 -10 -11 -15 -2 -20 6 -5 2 -8 -11 -8 -14
0 -23 -6 -23 -16 0 -8 -4 -12 -10 -9 -9 6 -14 -8 -11 -27 0 -5 -5 -7 -12 -5
-6 1 -11 -4 -10 -10 2 -7 0 -12 -5 -12 -4 1 -14 1 -22 0 -13 -1 -13 -2 0 -11
10 -6 11 -10 3 -10 -7 0 -13 -7 -13 -16 0 -8 -4 -12 -10 -9 -5 3 -10 -1 -10
-10 0 -9 -5 -13 -10 -10 -6 4 -10 3 -9 -2 3 -20 -2 -34 -11 -28 -6 3 -10 -2
-10 -13 0 -10 -9 -28 -19 -39 -11 -12 -17 -24 -14 -27 4 -3 -2 -6 -13 -6 -16
0 -17 -2 -4 -10 10 -6 11 -10 3 -10 -7 0 -13 -9 -13 -20 0 -11 -4 -20 -10 -20
-5 0 -10 -12 -10 -27 0 -22 -2 -25 -10 -13 -8 12 -10 9 -10 -12 0 -16 -5 -28
-11 -28 -5 0 -8 -4 -5 -9 3 -4 -1 -17 -9 -27 -8 -10 -15 -31 -15 -46 0 -15 -5
-30 -10 -33 -6 -3 -10 -19 -10 -35 0 -16 -4 -31 -9 -35 -6 -3 -9 -24 -9 -46 0
-22 -5 -46 -11 -52 -6 -6 -11 -40 -11 -75 0 -35 -4 -61 -8 -58 -4 2 -9 -5 -9
-17 -2 -17 0 -19 7 -7 6 9 10 10 10 3 0 -6 -5 -15 -10 -18 -14 -9 -14 -3395 0
-3395 6 0 10 -5 10 -11 0 -5 -4 -8 -8 -5 -5 3 -9 -1 -9 -9 0 -8 4 -15 9 -15 4
0 8 -15 8 -34 0 -19 5 -38 10 -41 8 -5 7 -11 -1 -21 -8 -10 -8 -14 0 -14 6 0
11 -5 11 -11 0 -5 -6 -7 -13 -3 -9 6 -9 4 1 -8 7 -9 14 -29 15 -46 1 -16 5
-28 9 -26 4 3 7 -4 7 -13 2 -55 6 -71 15 -66 5 4 7 -1 3 -10 -3 -10 -3 -17 2
-17 5 0 7 -11 6 -25 -2 -14 1 -23 6 -19 5 3 9 -11 9 -31 0 -22 4 -34 10 -30
10 6 13 -3 13 -37 0 -10 4 -15 8 -12 5 3 9 -4 9 -16 0 -12 7 -28 15 -36 8 -8
11 -22 8 -31 -4 -11 -3 -14 5 -9 8 5 12 0 12 -13 0 -12 4 -21 10 -21 5 0 9 -3
9 -7 -3 -20 2 -34 11 -28 6 4 10 -5 10 -20 0 -15 4 -24 10 -20 6 3 10 -1 10
-9 0 -9 5 -16 10 -16 6 0 10 -9 10 -21 0 -11 4 -17 10 -14 5 3 10 -1 10 -9 0
-9 5 -16 10 -16 6 0 10 -9 10 -21 0 -11 4 -17 10 -14 5 3 10 1 10 -6 0 -6 9
-20 21 -30 11 -9 20 -21 21 -26 0 -4 4 -7 9 -6 5 2 8 -3 6 -10 -1 -6 4 -11 11
-9 8 1 11 -2 8 -6 -3 -5 3 -20 14 -32 13 -15 20 -18 20 -9 0 8 6 3 13 -11 8
-14 19 -24 26 -22 7 1 10 -2 6 -8 -3 -5 -1 -10 5 -10 6 0 8 -5 4 -12 -4 -6 -3
-8 2 -5 5 3 25 -8 43 -24 18 -16 38 -26 44 -22 6 3 7 1 3 -5 -4 -7 -1 -12 6
-12 8 0 20 -9 28 -19 7 -11 17 -18 22 -15 4 3 8 0 8 -5 0 -6 3 -10 8 -9 14 3
63 -22 68 -35 3 -8 11 -14 19 -15 8 -1 22 -3 30 -4 8 -1 15 -5 15 -10 0 -4 8
-8 18 -8 10 0 22 -4 28 -9 5 -5 18 -11 29 -13 11 -1 23 -7 26 -11 3 -5 12 -9
20 -10 8 -2 19 -6 26 -10 6 -4 26 -10 45 -13 18 -2 42 -7 53 -9 11 -2 26 -4
33 -4 8 -1 10 -6 6 -13 -5 -9 -2 -9 9 1 11 9 17 10 17 2 0 -7 20 -11 49 -11
28 0 52 -4 56 -9 3 -6 14 -9 25 -8 10 1 17 4 15 7 -2 3 6 7 18 7 17 2 19 0 7
-7 -9 -6 628 -10 1718 -10 1375 0 1732 3 1726 13 -5 8 -2 7 9 -2 13 -10 17
-10 17 -1 0 9 4 9 17 -1 9 -8 14 -9 10 -3 -6 10 21 15 100 17 17 1 29 5 27 9
-3 4 6 8 20 8 14 0 26 5 26 10 0 6 5 10 11 10 5 0 7 -5 4 -11 -5 -7 -1 -7 14
0 53 27 61 31 68 31 5 0 1 -5 -7 -10 -8 -5 -10 -10 -5 -10 6 1 19 7 29 15 10
8 23 12 27 9 5 -3 9 0 9 5 0 6 17 11 38 11 27 0 33 3 22 10 -11 7 -7 10 19 10
22 0 40 8 52 22 11 11 19 16 19 10 0 -7 8 -7 24 1 13 7 22 15 20 19 -3 5 7 8
21 8 15 0 24 4 20 10 -4 6 5 10 19 10 14 0 26 5 26 10 0 6 8 10 18 10 10 0 24
9 32 19 7 11 17 18 21 15 5 -3 22 9 38 27 18 18 35 28 42 23 8 -4 9 -3 5 4 -4
7 -1 12 8 12 9 0 15 6 14 13 -2 6 3 11 10 9 6 -1 12 2 12 8 0 6 4 9 9 8 5 -2
8 -1 7 2 0 3 19 26 44 52 29 30 48 42 52 34 4 -6 8 2 8 19 0 19 3 25 8 17 6
-9 12 -5 22 13 7 14 17 25 22 25 4 0 8 7 8 16 0 9 5 12 12 8 6 -4 8 -3 5 3 -3
5 6 22 21 38 15 16 26 31 25 32 -8 9 -1 33 7 28 6 -3 10 4 10 17 0 18 2 20 10
8 8 -13 10 -13 10 1 0 10 13 42 30 73 16 31 24 54 17 50 -7 -4 -5 1 4 12 9 10
14 25 11 33 -3 8 0 11 7 7 7 -5 11 1 11 13 0 12 6 21 13 21 9 0 8 3 -2 9 -11
7 -11 9 0 14 12 4 12 6 0 6 -9 1 -6 8 9 21 13 11 19 20 13 20 -5 0 -10 7 -10
15 0 8 4 12 9 9 5 -4 8 0 7 7 -2 8 2 24 9 35 6 12 13 45 14 73 2 28 6 51 11
51 4 0 7 5 7 11 0 5 -4 7 -10 4 -6 -3 -10 -1 -10 4 0 6 4 11 10 11 6 0 10 628
10 1786 0 1433 -2 1784 -12 1778 -10 -5 -10 -4 -1 6 9 9 9 19 2 33 -6 11 -7
17 -2 14 5 -4 10 0 10 8 0 8 -4 12 -9 9 -7 -4 -14 62 -9 89 1 5 -4 5 -10 1 -8
-5 -10 -2 -6 8 3 9 0 26 -7 39 -6 13 -13 33 -14 44 -3 35 -8 54 -15 61 -4 4
-7 18 -7 31 0 13 -4 23 -10 23 -5 0 -10 14 -10 30 0 17 -4 30 -10 30 -5 0 -9
3 -9 8 3 19 -2 33 -11 27 -6 -4 -10 6 -10 21 0 15 -10 39 -22 52 -13 14 -18
22 -11 18 7 -4 1 12 -12 36 -13 23 -21 46 -18 51 3 6 1 7 -5 3 -7 -4 -12 -1
-12 7 0 8 -9 22 -20 32 -11 10 -20 22 -20 27 0 5 -7 16 -15 25 -8 8 -12 19 -9
25 4 7 2 8 -4 4 -7 -4 -12 -2 -12 4 0 7 -13 24 -30 40 -16 15 -26 30 -23 34 3
3 -1 6 -11 6 -9 0 -14 5 -11 10 3 6 1 10 -5 10 -6 0 -8 5 -5 10 4 6 1 9 -7 8
-7 -2 -12 3 -10 10 1 8 -2 11 -8 7 -5 -3 -10 -1 -10 5 0 6 -8 14 -17 17 -29
11 -45 30 -30 36 6 3 2 6 -10 6 -13 1 -23 5 -23 9 0 5 -11 15 -25 22 -13 7
-22 17 -19 22 3 5 2 8 -3 7 -18 -3 -34 1 -29 9 2 4 -20 19 -50 32 -30 14 -54
28 -54 33 0 4 -7 7 -16 7 -8 0 -12 5 -9 10 4 6 3 10 -2 9 -24 -4 -53 2 -48 11
4 6 -7 10 -25 10 -18 0 -29 4 -25 10 4 6 -5 10 -20 10 -18 0 -24 4 -19 13 5 7
0 6 -11 -3 -11 -9 -16 -10 -11 -2 7 12 0 15 -36 15 -10 0 -15 4 -12 8 3 5 -8
9 -25 9 -16 0 -33 5 -36 10 -4 6 -14 10 -23 8 -10 -1 -28 4 -41 11 -13 7 -21
9 -18 4 4 -5 0 -10 -8 -10 -8 0 -12 4 -10 7 4 7 -17 9 -88 10 -16 0 -26 3 -23
8 3 5 -1 9 -9 9 -8 0 -11 -5 -8 -11 3 -6 0 -5 -8 2 -7 6 -17 12 -22 12 -4 0
-5 -6 -1 -12 6 -10 5 -10 -7 -1 -18 14 -3456 16 -3465 1 -4 -5 -11 -5 -18 1
-8 7 -16 7 -23 0z"/>
</g>
</svg>
